<svg width="38" height="38" viewBox="0 0 38 38" fill="none" xmlns="http://www.w3.org/2000/svg">
<path d="M26.7294 22L31.454 8H35M26.7294 22H12.5458L9 11.5H30.2753L26.7294 22ZM23.1835 27.25C23.1835 26.2851 23.979 25.5 24.9565 25.5C25.934 25.5 26.7294 26.2851 26.7294 27.25C26.7294 28.2149 25.934 29 24.9565 29C23.9694 29 23.1835 28.2149 23.1835 27.25ZM12.5458 27.25C12.5458 26.2851 13.3412 25.5 14.3188 25.5C15.2963 25.5 16.0918 26.2851 16.0918 27.25C16.0918 28.2149 15.2963 29 14.3188 29C13.3412 29 12.5458 28.2149 12.5458 27.25Z" stroke="#262626" stroke-width="1.5" stroke-miterlimit="10" stroke-linecap="round" stroke-linejoin="round"/>
</svg>
