<svg width="38" height="38" viewBox="0 0 38 38" fill="none" xmlns="http://www.w3.org/2000/svg">
<path fill-rule="evenodd" clip-rule="evenodd" d="M3.66705e-05 11C1.64179e-05 10.4477 0.447715 9.99998 1 9.99996L21 9.99923C21.5523 9.99921 22 10.4469 22 10.9992C22.0001 11.5515 21.5524 11.9992 21.0001 11.9992L1.00007 12C0.447789 12 5.6923e-05 11.5523 3.66705e-05 11Z" fill="#262626"/>
<path fill-rule="evenodd" clip-rule="evenodd" d="M3.66705e-05 19C1.64179e-05 18.4477 0.447715 18 1 18L21 17.9992C21.5523 17.9992 22 18.4469 22 18.9992C22.0001 19.5515 21.5524 19.9992 21.0001 19.9992L1.00007 20C0.447789 20 5.6923e-05 19.5523 3.66705e-05 19Z" fill="#262626"/>
<path fill-rule="evenodd" clip-rule="evenodd" d="M3.66705e-05 27C1.64179e-05 26.4477 0.447715 26 1 26L21 25.9992C21.5523 25.9992 22 26.4469 22 26.9992C22.0001 27.5515 21.5524 27.9992 21.0001 27.9992L1.00007 28C0.447789 28 5.6923e-05 27.5523 3.66705e-05 27Z" fill="#262626"/>
</svg>
