<svg width="38" height="38" viewBox="0 0 38 38" fill="none" xmlns="http://www.w3.org/2000/svg">
<path fill-rule="evenodd" clip-rule="evenodd" d="M7.14844 15.3C7.14844 11.8158 9.96428 9 13.4485 9C15.8505 9 17.9341 10.3428 18.9972 12.3146C20.0597 10.3398 22.1451 9 24.5485 9C28.0227 9 30.8484 11.8258 30.8484 15.3C30.8484 19.3611 27.8274 22.7937 25.0285 25.1262C23.6052 26.3123 22.1857 27.2583 21.1239 27.9071C20.5922 28.2321 20.1482 28.4837 19.8356 28.6549C19.6793 28.7405 19.5557 28.8061 19.4702 28.8507C19.4275 28.873 19.3944 28.89 19.3714 28.9018L19.3447 28.9153L19.3373 28.9191L19.335 28.9202L19.3343 28.9206C19.334 28.9207 19.3338 28.9208 18.9984 28.25C18.663 28.9208 18.6628 28.9207 18.6625 28.9206L18.6618 28.9202L18.6596 28.9191L18.6521 28.9153L18.6254 28.9018C18.6025 28.89 18.5693 28.873 18.5266 28.8507C18.4412 28.8061 18.3176 28.7405 18.1612 28.6549C17.8486 28.4837 17.4046 28.2321 16.873 27.9071C15.8112 27.2583 14.3917 26.3123 12.9683 25.1262C10.1694 22.7937 7.14844 19.3611 7.14844 15.3ZM18.9984 28.25L18.663 28.9208L18.9984 29.0885L19.3338 28.9208L18.9984 28.25ZM18.9984 27.4027C19.0347 27.3832 19.0736 27.362 19.1151 27.3392C19.4096 27.178 19.8328 26.9382 20.3417 26.6272C21.3612 26.0042 22.7166 25.1002 24.0683 23.9738C26.8193 21.6813 29.3484 18.6389 29.3484 15.3C29.3484 12.6542 27.1942 10.5 24.5485 10.5C21.8927 10.5 19.7484 12.6442 19.7484 15.3H18.2484C18.2484 12.6533 16.1034 10.5 13.4485 10.5C10.7927 10.5 8.64844 12.6442 8.64844 15.3C8.64844 18.6389 11.1775 21.6813 13.9286 23.9738C15.2802 25.1002 16.6357 26.0042 17.6551 26.6272C18.1641 26.9382 18.5872 27.178 18.8817 27.3392C18.9232 27.362 18.9622 27.3832 18.9984 27.4027Z" fill="#262626"/>
</svg>
