<svg width="269" height="36" viewBox="0 0 269 36" fill="none" xmlns="http://www.w3.org/2000/svg">
<path d="M27.844 29.511V35.4541H0V30.727L17.4779 9.8649H0.364711V3.92188H27.1707V8.64898L9.7349 29.511H27.844Z" fill="white"/>
<path d="M57.6647 19.6876C57.6647 13.6899 53.3864 9.59127 47.7054 9.59127C42.0243 9.59127 37.746 13.6899 37.746 19.6876C37.746 25.6853 42.0243 29.7839 47.7054 29.7839C53.3864 29.7839 57.6647 25.6853 57.6647 19.6876ZM30.2695 19.6876C30.2695 10.3154 37.6338 3.375 47.6913 3.375C57.7068 3.375 65.1132 10.2744 65.1132 19.6876C65.1132 29.1008 57.6928 36.0002 47.6913 36.0002C37.6478 36.0002 30.2695 29.0598 30.2695 19.6876Z" fill="white"/>
<path d="M100.28 3.92188L86.4917 35.4541H79.2115L65.4648 3.92188H73.4323L83.1251 26.4507L92.9442 3.92188H100.28Z" fill="white"/>
<path d="M141.887 19.6876C141.887 13.6899 137.609 9.59127 131.914 9.59127C126.233 9.59127 121.955 13.6899 121.955 19.6876C121.955 25.6853 126.233 29.7839 131.914 29.7839C137.609 29.7839 141.887 25.6853 141.887 19.6876ZM114.492 19.6876C114.492 10.3154 121.856 3.375 131.914 3.375C141.929 3.375 149.336 10.2744 149.336 19.6876C149.336 29.1008 141.915 36.0002 131.914 36.0002C121.871 36.0002 114.492 29.0598 114.492 19.6876Z" fill="white"/>
<path d="M179.454 21.588V35.4688H172.356V22.6674C172.356 18.7463 170.533 16.9429 167.391 16.9429C163.982 16.9429 161.527 19.0196 161.527 23.4734V35.4551H154.43V11.2185H161.205V14.0602C163.113 11.9836 165.988 10.8633 169.299 10.8633C175.078 10.8633 179.454 14.1968 179.454 21.588Z" fill="white"/>
<path d="M192.973 2.03516H185.875V35.4664H192.973V2.03516Z" fill="white"/>
<path d="M199.578 11.2166H206.676V35.4532H199.578V11.2166ZM198.723 3.92103C198.723 1.72143 200.49 0 203.127 0C205.764 0 207.546 1.62579 207.546 3.78441C207.546 6.12063 205.764 7.84206 203.127 7.84206C200.49 7.84206 198.723 6.13429 198.723 3.92103Z" fill="white"/>
<path d="M238.306 21.588V35.4688H231.208V22.6674C231.208 18.7463 229.385 16.9429 226.242 16.9429C222.834 16.9429 220.379 19.0196 220.379 23.4734V35.4551H213.281V11.2185H220.056V14.0602C221.964 11.9836 224.84 10.8633 228.15 10.8633C233.943 10.8633 238.306 14.1968 238.306 21.588Z" fill="white"/>
<path d="M250.245 21.2172H262.308C261.803 18.1569 259.489 16.1759 256.305 16.1759C253.064 16.1759 250.75 18.1159 250.245 21.2172ZM268.859 25.3159H250.343C251.03 28.3352 253.625 30.1796 257.357 30.1796C259.952 30.1796 261.817 29.4145 263.501 27.8434L267.274 31.901C265.001 34.4695 261.593 35.8221 257.174 35.8221C248.716 35.8221 243.203 30.5485 243.203 23.3485C243.203 16.0939 248.8 10.875 256.262 10.875C263.458 10.875 268.999 15.6567 268.999 23.4442C268.999 23.977 268.901 24.7421 268.859 25.3159Z" fill="white"/>
</svg>
