<svg width="14" height="14" viewBox="0 0 14 14" fill="none" xmlns="http://www.w3.org/2000/svg">
<path fill-rule="evenodd" clip-rule="evenodd" d="M0.504528 0.504528C0.656398 0.352657 0.902629 0.352657 1.0545 0.504528L7.00174 6.45176L12.949 0.504528C13.1008 0.352657 13.3471 0.352657 13.4989 0.504528C13.6508 0.656398 13.6508 0.902629 13.4989 1.0545L7.55171 7.00174L13.4989 12.949C13.6508 13.1008 13.6508 13.3471 13.4989 13.4989C13.3471 13.6508 13.1008 13.6508 12.949 13.4989L7.00174 7.55171L1.0545 13.4989C0.902629 13.6508 0.656398 13.6508 0.504528 13.4989C0.352657 13.3471 0.352657 13.1008 0.504528 12.949L6.45176 7.00174L0.504528 1.0545C0.352657 0.902629 0.352657 0.656398 0.504528 0.504528Z" fill="white"/>
</svg>
