<svg width="30" height="30" viewBox="0 0 30 30" fill="none" xmlns="http://www.w3.org/2000/svg">
<circle cx="15" cy="15" r="10" fill="#737373"/>
<path d="M18.9347 11.3273C18.9347 11.3273 20.091 10.9485 19.9943 11.8683C19.9624 12.247 19.6734 13.5727 19.4484 15.0065L18.6776 19.254C18.6776 19.254 18.6133 19.8762 18.035 19.9845C17.457 20.0925 16.5898 19.6057 16.429 19.4975C16.3005 19.4162 14.0201 18.1987 13.2171 17.6037C12.9921 17.4412 12.735 17.1167 13.2492 16.738L16.6219 14.0325C17.0073 13.7075 17.3927 12.95 15.7868 13.87L11.2897 16.44C11.2897 16.44 10.7757 16.7107 9.81231 16.4672L7.7242 15.926C7.7242 15.926 6.95336 15.5202 8.27033 15.1145C11.4826 13.843 15.4335 12.5445 18.9344 11.327" fill="white"/>
</svg>
