<svg width="30" height="30" viewBox="0 0 30 30" fill="none" xmlns="http://www.w3.org/2000/svg">
<path d="M15 5C9.47708 5 5 9.47708 5 15C5 20.5229 9.47708 25 15 25C20.5229 25 25 20.5229 25 15C25 9.47708 20.5229 5 15 5Z" fill="#737373"/>
<path d="M8.75 11.256H10.8979C10.9665 14.6908 12.54 16.1439 13.7887 16.4442V11.256H15.8054V14.2164C17.0355 14.0903 18.3342 12.7392 18.7712 11.25H20.7817C20.6177 12.0208 20.2902 12.7509 19.8196 13.3945C19.3491 14.0382 18.7456 14.5817 18.047 14.991C18.8268 15.3642 19.5156 15.8921 20.0677 16.5401C20.6198 17.1881 21.0228 17.9413 21.25 18.75H19.0335C18.5589 17.3269 17.3726 16.222 15.8054 16.0719V18.75H15.5557C11.285 18.75 8.8499 15.9398 8.75 11.256Z" fill="white"/>
</svg>
