<svg width="10" height="10" viewBox="0 0 10 10" fill="none" xmlns="http://www.w3.org/2000/svg">
<g clip-path="url(#clip0_958_3447)">
<path fill-rule="evenodd" clip-rule="evenodd" d="M10.1006 9.99667H8.1737V9.99467C8.1737 5.41919 4.9123 2.27875 0.574723 1.97243H0.00884186V0H10.1341V1.97243H5.79397C8.38717 3.9089 10.1006 6.43937 10.1006 9.99467V9.99667ZM2.00395 10C1.9168 8.69614 1.2625 8.04888 0.00442093 7.96298V6.10908C0.00757875 6.10908 0.0107366 6.10891 0.0138944 6.10874C0.0170522 6.10858 0.02021 6.10841 0.0233678 6.10841C2.29637 6.10841 3.79317 7.63202 3.79317 9.99001L3.79286 9.995L3.79254 10H2.00395ZM0.0126311 4.9384H0V2.93867H0.0126311C3.97885 2.93867 6.98573 5.87135 6.98762 9.98601H5.06072C5.05883 6.97276 2.91783 4.9384 0.0126311 4.9384Z" fill="#333333"/>
</g>
<defs>
<clipPath id="clip0_958_3447">
<rect width="10" height="10" fill="white"/>
</clipPath>
</defs>
</svg>
