<svg width="38" height="38" viewBox="0 0 38 38" fill="none" xmlns="http://www.w3.org/2000/svg">
<path fill-rule="evenodd" clip-rule="evenodd" d="M19.0001 8.65625C16.3452 8.65625 14.2002 10.8096 14.2002 13.4562C14.2002 16.112 16.3443 18.2562 19.0001 18.2562C21.6468 18.2562 23.8002 16.1111 23.8002 13.4562C23.8002 10.8014 21.6468 8.65625 19.0001 8.65625ZM22.4095 18.7546C24.1473 17.6342 25.3002 15.6819 25.3002 13.4562C25.3002 9.97115 22.4734 7.15625 19.0001 7.15625C15.515 7.15625 12.7002 9.98293 12.7002 13.4562C12.7002 15.6819 13.8492 17.6349 15.5874 18.7553C10.7092 20.2209 7.16016 24.7472 7.16016 30.0962C7.16016 30.5105 7.49594 30.8462 7.91016 30.8462C8.32437 30.8462 8.66016 30.5105 8.66016 30.0962C8.66016 24.39 13.2848 19.7562 19.0001 19.7562C24.7064 19.7562 29.3402 24.3809 29.3402 30.0962C29.3402 30.5105 29.676 30.8462 30.0902 30.8462C30.5044 30.8462 30.8402 30.5105 30.8402 30.0962C30.8402 24.7385 27.284 20.218 22.4095 18.7546Z" fill="#262626"/>
</svg>
