<svg width="38" height="38" viewBox="0 0 38 38" fill="none" xmlns="http://www.w3.org/2000/svg">
<path fill-rule="evenodd" clip-rule="evenodd" d="M0.706956 11.293C1.09748 10.9025 1.73064 10.9025 2.12117 11.293L16.2633 25.4352C16.6538 25.8257 16.6538 26.4589 16.2633 26.8494C15.8728 27.2399 15.2396 27.2399 14.8491 26.8494L0.706956 12.7073C0.316431 12.3167 0.316431 11.6836 0.706956 11.293Z" fill="#262626"/>
<path fill-rule="evenodd" clip-rule="evenodd" d="M0.707107 26.918C0.316582 26.5275 0.316582 25.8944 0.707107 25.5038L14.8492 11.3617C15.2398 10.9712 15.8729 10.9712 16.2635 11.3617C16.654 11.7522 16.654 12.3854 16.2635 12.7759L2.12132 26.918C1.7308 27.3086 1.09763 27.3086 0.707107 26.918Z" fill="#262626"/>
</svg>
