<svg width="38" height="38" viewBox="0 0 38 38" fill="none" xmlns="http://www.w3.org/2000/svg">
<path fill-rule="evenodd" clip-rule="evenodd" d="M10.6464 10.6464C10.8417 10.4512 11.1583 10.4512 11.3536 10.6464L19 18.2929L26.6464 10.6464C26.8417 10.4512 27.1583 10.4512 27.3536 10.6464C27.5488 10.8417 27.5488 11.1583 27.3536 11.3536L19.7071 19L27.3536 26.6464C27.5488 26.8417 27.5488 27.1583 27.3536 27.3536C27.1583 27.5488 26.8417 27.5488 26.6464 27.3536L19 19.7071L11.3536 27.3536C11.1583 27.5488 10.8417 27.5488 10.6464 27.3536C10.4512 27.1583 10.4512 26.8417 10.6464 26.6464L18.2929 19L10.6464 11.3536C10.4512 11.1583 10.4512 10.8417 10.6464 10.6464Z" fill="white"/>
</svg>
