<svg width="30" height="30" viewBox="0 0 30 30" fill="none" xmlns="http://www.w3.org/2000/svg">
<path d="M21.6406 2.5H8.35938C5.12333 2.5 2.5 5.12333 2.5 8.35938V21.6406C2.5 24.8767 5.12333 27.5 8.35938 27.5H21.6406C24.8767 27.5 27.5 24.8767 27.5 21.6406V8.35938C27.5 5.12333 24.8767 2.5 21.6406 2.5Z" fill="url(#paint0_radial_958_2469)"/>
<path d="M21.6406 2.5H8.35938C5.12333 2.5 2.5 5.12333 2.5 8.35938V21.6406C2.5 24.8767 5.12333 27.5 8.35938 27.5H21.6406C24.8767 27.5 27.5 24.8767 27.5 21.6406V8.35938C27.5 5.12333 24.8767 2.5 21.6406 2.5Z" fill="url(#paint1_radial_958_2469)"/>
<path d="M22.5 6.25C21.8099 6.25 21.25 6.80947 21.25 7.49979C21.25 8.19001 21.8099 8.75 22.5 8.75C23.1901 8.75 23.75 8.19001 23.75 7.49979C23.75 6.80957 23.1901 6.25 22.5 6.25Z" fill="white"/>
<path d="M15.0004 8.75C11.5487 8.75 8.75 11.5487 8.75 15.0007C8.75 18.4526 11.5487 21.25 15.0004 21.25C18.4523 21.25 21.25 18.4526 21.25 15.0007C21.25 11.5488 18.4523 8.75 15.0004 8.75ZM15.0004 10.9434C17.241 10.9434 19.0576 12.7598 19.0576 15.0007C19.0576 17.2413 17.241 19.0579 15.0004 19.0579C12.7598 19.0579 10.9434 17.2413 10.9434 15.0007C10.9434 12.7598 12.7597 10.9434 15.0004 10.9434Z" fill="white"/>
<defs>
<radialGradient id="paint0_radial_958_2469" cx="0" cy="0" r="1" gradientUnits="userSpaceOnUse" gradientTransform="translate(9.14062 29.4255) rotate(-90) scale(24.7769 23.0444)">
<stop stop-color="#FFDD55"/>
<stop offset="0.1" stop-color="#FFDD55"/>
<stop offset="0.5" stop-color="#FF543E"/>
<stop offset="1" stop-color="#C837AB"/>
</radialGradient>
<radialGradient id="paint1_radial_958_2469" cx="0" cy="0" r="1" gradientUnits="userSpaceOnUse" gradientTransform="translate(-1.6876 4.30088) rotate(78.681) scale(11.0754 45.6531)">
<stop stop-color="#3771C8"/>
<stop offset="0.128" stop-color="#3771C8"/>
<stop offset="1" stop-color="#6600FF" stop-opacity="0"/>
</radialGradient>
</defs>
</svg>
