<svg width="30" height="30" viewBox="0 0 30 30" fill="none" xmlns="http://www.w3.org/2000/svg">
<circle cx="15" cy="15" r="12.5" fill="#28A4E3"/>
<path d="M19.9717 10.0993C19.9717 10.0993 21.3592 9.61236 21.2431 10.7949C21.2049 11.2819 20.8581 12.9864 20.5881 14.8298L19.6631 20.2908C19.6631 20.2908 19.5859 21.0909 18.892 21.23C18.1984 21.3689 17.1577 20.7431 16.9648 20.6039C16.8106 20.4994 14.0741 18.9341 13.1105 18.1691C12.8405 17.9602 12.5319 17.5429 13.1491 17.056L17.1963 13.5775C17.6588 13.1596 18.1213 12.1857 16.1941 13.3686L10.7976 16.6728C10.7976 16.6728 10.1809 17.0209 9.02477 16.7079L6.51904 16.012C6.51904 16.012 5.59403 15.4903 7.1744 14.9686C11.0291 13.3338 15.7702 11.6644 19.9713 10.099" fill="white"/>
</svg>
