<svg width="30" height="30" viewBox="0 0 30 30" fill="none" xmlns="http://www.w3.org/2000/svg">
<ellipse cx="15" cy="13.125" rx="10" ry="9.375" fill="white"/>
<path fill-rule="evenodd" clip-rule="evenodd" d="M21.3537 3.17631C17.1691 2.27456 12.8296 2.27456 8.64498 3.17631L8.19409 3.27248C7.01669 3.5255 5.93524 4.08858 5.07013 4.89902C4.20503 5.70946 3.59022 6.73546 3.29416 7.8628C2.23528 11.8924 2.23528 16.1129 3.29416 20.1425C3.57653 21.2177 4.14908 22.2016 4.95363 22.9943C5.75819 23.787 6.76607 24.3603 7.87488 24.6559L8.49335 28.2154C8.5131 28.3284 8.56391 28.4342 8.6405 28.5219C8.7171 28.6096 8.81667 28.6758 8.92885 28.7138C9.04103 28.7518 9.16172 28.76 9.27835 28.7378C9.39498 28.7155 9.50328 28.6635 9.59198 28.5872L13.2244 25.4548C15.9511 25.6134 18.6874 25.4032 21.3537 24.8303L21.8059 24.7341C22.9833 24.4811 24.0648 23.918 24.9299 23.1076C25.795 22.2972 26.4098 21.2712 26.7058 20.1438C27.7647 16.1142 27.7647 11.8937 26.7058 7.86408C26.4097 6.73658 25.7947 5.71047 24.9293 4.90001C24.064 4.08955 22.9822 3.52657 21.8046 3.27376L21.3537 3.17631ZM9.76755 7.75894C9.52035 7.72404 9.26821 7.77202 9.05331 7.89486H9.03469C8.53592 8.17694 8.08636 8.53211 7.7033 8.95012C7.38409 9.30529 7.21118 9.66431 7.16596 10.0105C7.13935 10.2157 7.15798 10.4234 7.22049 10.6196L7.24443 10.6324C7.60354 11.6492 8.07172 12.6275 8.64365 13.5481C9.38143 14.841 10.2889 16.0369 11.3437 17.1063L11.3756 17.1499L11.4261 17.1858L11.4567 17.2204L11.494 17.2512C12.6072 18.2709 13.8506 19.1499 15.1942 19.8669C16.7304 20.6734 17.6628 21.0542 18.2227 21.2132V21.2209C18.3863 21.2696 18.5353 21.2914 18.6856 21.2914C19.1627 21.2584 19.6144 21.0714 19.9678 20.7606C20.4 20.3913 20.7658 19.9566 21.0504 19.4732V19.4643C21.3178 18.977 21.2273 18.518 20.8416 18.2064C20.0675 17.553 19.2296 16.9733 18.3398 16.4754C17.7439 16.1638 17.1387 16.3523 16.894 16.6677L16.3713 17.3037C16.1026 17.6192 15.6158 17.5756 15.6158 17.5756L15.6025 17.5832C11.9701 16.6895 11.0005 13.1442 11.0005 13.1442C11.0005 13.1442 10.9553 12.6621 11.2918 12.4159L11.9462 11.9082C12.2601 11.662 12.4782 11.0799 12.1417 10.5054C11.6264 9.64819 11.0264 8.84092 10.3501 8.09488C10.2022 7.9197 9.99499 7.80032 9.76489 7.75766M15.9044 6.21772C15.7281 6.21772 15.5589 6.28527 15.4342 6.4055C15.3095 6.52573 15.2394 6.6888 15.2394 6.85883C15.2394 7.02886 15.3095 7.19193 15.4342 7.31216C15.5589 7.43239 15.7281 7.49993 15.9044 7.49993C17.587 7.49993 18.9835 8.02949 20.0888 9.045C20.6567 9.6002 21.0996 10.258 21.3896 10.9786C21.6809 11.7005 21.8139 12.4711 21.7793 13.243C21.7756 13.3272 21.7892 13.4112 21.8192 13.4904C21.8493 13.5695 21.8952 13.6421 21.9543 13.7042C22.0738 13.8295 22.24 13.9039 22.4164 13.911C22.5928 13.9181 22.7649 13.8574 22.8948 13.7423C23.0248 13.6271 23.102 13.4668 23.1094 13.2968C23.149 12.3474 22.9856 11.4003 22.6292 10.5144C22.2712 9.62403 21.726 8.81466 21.0278 8.13719L21.0145 8.12437C19.6432 6.86139 17.9075 6.21772 15.9044 6.21772ZM15.8592 8.32568C15.6828 8.32568 15.5137 8.39322 15.389 8.51345C15.2643 8.63369 15.1942 8.79675 15.1942 8.96678C15.1942 9.13682 15.2643 9.29988 15.389 9.42011C15.5137 9.54035 15.6828 9.60789 15.8592 9.60789H15.8818C17.0948 9.69123 17.978 10.081 18.5965 10.7209C19.2309 11.3799 19.5594 12.1992 19.5342 13.2122C19.5301 13.3822 19.5963 13.5468 19.7181 13.6698C19.84 13.7928 20.0075 13.8641 20.1839 13.868C20.3603 13.872 20.531 13.8082 20.6586 13.6907C20.7862 13.5732 20.8602 13.4117 20.8642 13.2417C20.8961 11.912 20.4519 10.7644 19.5714 9.84895V9.84638C18.671 8.9155 17.4353 8.42313 15.9483 8.32696L15.9257 8.3244L15.8592 8.32568ZM15.8339 10.4734C15.7449 10.4658 15.6553 10.4756 15.5703 10.5022C15.4853 10.5288 15.4067 10.5716 15.3393 10.6281C15.2719 10.6846 15.2169 10.7536 15.1778 10.831C15.1386 10.9084 15.116 10.9926 15.1114 11.0786C15.1067 11.1647 15.1201 11.2507 15.1507 11.3316C15.1813 11.4125 15.2285 11.4867 15.2895 11.5496C15.3505 11.6126 15.424 11.663 15.5057 11.698C15.5873 11.7329 15.6755 11.7516 15.7648 11.753C16.3207 11.7812 16.6759 11.9428 16.8993 12.1595C17.1241 12.3775 17.2917 12.7275 17.3223 13.275C17.3239 13.3611 17.3436 13.4459 17.3799 13.5245C17.4163 13.603 17.4688 13.6737 17.5341 13.7324C17.5994 13.791 17.6763 13.8363 17.7602 13.8657C17.8442 13.8951 17.9333 13.9079 18.0225 13.9033C18.1116 13.8987 18.1989 13.8769 18.2791 13.8392C18.3593 13.8014 18.4308 13.7484 18.4893 13.6835C18.5478 13.6185 18.5922 13.5428 18.6198 13.461C18.6473 13.3791 18.6575 13.2928 18.6497 13.2071C18.6071 12.4377 18.3571 11.7582 17.845 11.2581C17.3303 10.758 16.6293 10.5144 15.8339 10.4734Z" fill="#7454C1"/>
</svg>
