<svg width="30" height="30" viewBox="0 0 30 30" fill="none" xmlns="http://www.w3.org/2000/svg">
<path d="M27.5 15C27.5 8.09648 21.9035 2.5 15 2.5C8.09648 2.5 2.5 8.09648 2.5 15C2.5 21.2391 7.07109 26.4104 13.0469 27.3481V18.6133H9.87305V15H13.0469V12.2461C13.0469 9.11328 14.9131 7.38281 17.7684 7.38281C19.1359 7.38281 20.5664 7.62695 20.5664 7.62695V10.7031H18.9902C17.4374 10.7031 16.9531 11.6667 16.9531 12.6553V15H20.4199L19.8657 18.6133H16.9531V27.3481C22.9289 26.4104 27.5 21.2392 27.5 15Z" fill="#1877F2"/>
<path d="M19.8677 18.6133L20.4219 15H16.9551V12.6553C16.9551 11.6666 17.4394 10.7031 18.9922 10.7031H20.5684V7.62695C20.5684 7.62695 19.1379 7.38281 17.7702 7.38281C14.915 7.38281 13.0488 9.11328 13.0488 12.2461V15H9.875V18.6133H13.0488V27.3481C13.6949 27.4494 14.348 27.5002 15.002 27.5C15.6559 27.5002 16.309 27.4494 16.9551 27.3481V18.6133H19.8677Z" fill="white"/>
</svg>
