<svg width="30" height="30" viewBox="0 0 30 30" fill="none" xmlns="http://www.w3.org/2000/svg">
<circle cx="15" cy="15" r="12.5" fill="#FF7700"/>
<path d="M14.988 14.9765C12.542 14.9765 10.509 12.9968 10.509 10.6542C10.509 8.23057 12.542 6.25 14.9889 6.25C17.519 6.25 19.468 8.22972 19.468 10.6542C19.4661 11.2238 19.349 11.7874 19.1236 12.313C18.8982 12.8385 18.5687 13.3156 18.1541 13.717C17.7394 14.1185 17.2477 14.4364 16.707 14.6526C16.1663 14.8689 15.5872 14.9792 15.0028 14.9773L14.988 14.9765ZM14.988 8.79596C13.9525 8.79596 13.1645 9.64405 13.1645 10.655C13.1645 11.6643 13.9525 12.4322 14.9889 12.4322C16.0669 12.4322 16.8133 11.6643 16.8133 10.655C16.8141 9.64321 16.0669 8.79596 14.988 8.79596ZM16.7717 17.9458L19.3026 20.3298C19.8005 20.8538 19.8005 21.6217 19.3026 22.107C18.7641 22.631 17.9337 22.631 17.5189 22.107L14.9889 19.6825L12.542 22.107C12.2935 22.3492 11.961 22.4698 11.587 22.4698C11.2969 22.4698 10.9653 22.3483 10.6743 22.107C10.1765 21.6217 10.1765 20.8538 10.6743 20.3289L13.2459 17.945C12.3173 17.6769 11.4264 17.2973 10.5938 16.815C9.97126 16.4918 9.84744 15.6843 10.1791 15.0775C10.5938 14.4716 11.3402 14.3104 12.0043 14.7146C12.9036 15.2495 13.9465 15.5325 15 15.5325C16.0535 15.5325 17.0768 15.2495 17.9761 14.7146C18.6402 14.3104 19.4273 14.4716 19.8005 15.0775C20.1745 15.6843 20.0074 16.491 19.4264 16.815C18.6394 17.3003 17.7268 17.664 16.7726 17.9467L16.7717 17.9458Z" fill="white"/>
</svg>
