<svg width="30" height="30" viewBox="0 0 30 30" fill="none" xmlns="http://www.w3.org/2000/svg">
<path d="M15 2.5C8.09635 2.5 2.5 8.09635 2.5 15C2.5 21.9036 8.09635 27.5 15 27.5C21.9036 27.5 27.5 21.9036 27.5 15C27.5 8.09635 21.9036 2.5 15 2.5Z" fill="#0077FF"/>
<path d="M7.54688 10.5973H10.1269C10.2094 14.8873 12.0994 16.7023 13.5994 17.0773V10.5973H16.0219V14.2948C17.4994 14.1373 19.0594 12.4498 19.5844 10.5898H21.9994C21.8023 11.5526 21.4089 12.4644 20.8437 13.2684C20.2785 14.0723 19.5536 14.7511 18.7144 15.2623C19.6512 15.7284 20.4785 16.3879 21.1417 17.1972C21.8049 18.0065 22.2889 18.9472 22.5619 19.9573H19.8994C19.3294 18.1798 17.9044 16.7998 16.0219 16.6123V19.9573H15.7219C10.5919 19.9573 7.66688 16.4473 7.54688 10.5973Z" fill="white"/>
</svg>
