<svg width="30" height="30" viewBox="0 0 30 30" fill="none" xmlns="http://www.w3.org/2000/svg">
<path fill-rule="evenodd" clip-rule="evenodd" d="M4.41099 21.6461L4.70868 22.1187L3.44535 26.7299L8.17657 25.4895L8.6332 25.7603C10.552 26.8988 12.7522 27.5012 14.9955 27.5024H15.0005C21.8902 27.5024 27.4978 21.896 27.5009 15.0059C27.5017 11.6665 26.203 8.52677 23.8428 6.16482C21.4825 3.8031 18.3444 2.50142 15.0052 2.5C8.11002 2.5 2.5026 8.10566 2.5 14.9958C2.49906 17.3569 3.15957 19.6563 4.41099 21.6461Z" fill="url(#paint0_linear_958_2489)"/>
<path d="M11.2386 8.70883C10.957 8.08312 10.6608 8.0705 10.393 8.05952C10.1738 8.05009 9.9232 8.05079 9.67282 8.05079C9.42221 8.05079 9.01502 8.14507 8.67084 8.52087C8.3263 8.89703 7.35547 9.80603 7.35547 11.6548C7.35547 13.5037 8.70211 15.2905 8.88983 15.5415C9.07779 15.792 11.4895 19.7074 15.3092 21.2137C18.4836 22.4655 19.1296 22.2165 19.8186 22.1537C20.5076 22.0912 22.042 21.245 22.355 20.3675C22.6683 19.4901 22.6683 18.738 22.5744 18.5808C22.4804 18.4242 22.2298 18.3302 21.854 18.1424C21.4782 17.9545 19.6306 17.0453 19.2862 16.9199C18.9416 16.7946 18.6911 16.732 18.4405 17.1083C18.1899 17.484 17.4703 18.3302 17.2509 18.5808C17.0318 18.832 16.8125 18.8633 16.4368 18.6753C16.0608 18.4868 14.8505 18.0905 13.4147 16.8104C12.2975 15.8143 11.5433 14.5842 11.3241 14.2079C11.1049 13.8323 11.3006 13.6286 11.4891 13.4414C11.6579 13.273 11.865 13.0025 12.0531 12.7832C12.2404 12.5637 12.303 12.4072 12.4283 12.1565C12.5537 11.9057 12.4909 11.6862 12.3971 11.4983C12.303 11.3103 11.5727 9.45182 11.2386 8.70883Z" fill="white"/>
<defs>
<linearGradient id="paint0_linear_958_2489" x1="1458.34" y1="2929.57" x2="1458.34" y2="0.486141" gradientUnits="userSpaceOnUse">
<stop stop-color="#1FAF38"/>
<stop offset="1" stop-color="#60D669"/>
</linearGradient>
</defs>
</svg>
