<svg width="30" height="30" viewBox="0 0 30 30" fill="none" xmlns="http://www.w3.org/2000/svg">
<path d="M25 15C25 9.47719 20.5228 5 15 5C9.47719 5 5 9.47719 5 15C5 19.9912 8.65687 24.1284 13.4375 24.8785V17.8906H10.8984V15H13.4375V12.7969C13.4375 10.2906 14.9305 8.90625 17.2147 8.90625C18.3088 8.90625 19.4531 9.10156 19.4531 9.10156V11.5625H18.1922C16.9499 11.5625 16.5625 12.3334 16.5625 13.1242V15H19.3359L18.8926 17.8906H16.5625V24.8785C21.3431 24.1284 25 19.9913 25 15Z" fill="#737373"/>
<path d="M18.8926 17.8906L19.3359 15H16.5625V13.1242C16.5625 12.3333 16.9499 11.5625 18.1922 11.5625H19.4531V9.10156C19.4531 9.10156 18.3088 8.90625 17.2146 8.90625C14.9305 8.90625 13.4375 10.2906 13.4375 12.7969V15H10.8984V17.8906H13.4375V24.8785C13.9544 24.9595 14.4768 25.0001 15 25C15.5232 25.0001 16.0456 24.9595 16.5625 24.8785V17.8906H18.8926Z" fill="white"/>
</svg>
