<svg width="30" height="30" viewBox="0 0 30 30" fill="none" xmlns="http://www.w3.org/2000/svg">
<path d="M20.3125 5H9.6875C7.09867 5 5 7.09867 5 9.6875V20.3125C5 22.9013 7.09867 25 9.6875 25H20.3125C22.9013 25 25 22.9013 25 20.3125V9.6875C25 7.09867 22.9013 5 20.3125 5Z" fill="#737373"/>
<path d="M21.25 7.5C20.5599 7.5 20 8.05947 20 8.74979C20 9.44001 20.5599 10 21.25 10C21.9401 10 22.5 9.44001 22.5 8.74979C22.5 8.05957 21.9401 7.5 21.25 7.5Z" fill="white"/>
<path d="M15.0003 10C12.2389 10 10 12.239 10 15.0005C10 17.7621 12.2389 20 15.0003 20C17.7619 20 20 17.7621 20 15.0005C20 12.2391 17.7619 10 15.0003 10ZM15.0003 11.7547C16.7928 11.7547 18.2461 13.2078 18.2461 15.0005C18.2461 16.7931 16.7928 18.2463 15.0003 18.2463C13.2079 18.2463 11.7547 16.7931 11.7547 15.0005C11.7547 13.2078 13.2078 11.7547 15.0003 11.7547Z" fill="white"/>
</svg>
