<svg width="30" height="30" viewBox="0 0 30 30" fill="none" xmlns="http://www.w3.org/2000/svg">
<circle cx="15" cy="15" r="10" fill="#737373"/>
<path d="M14.9904 14.9812C13.0336 14.9812 11.4072 13.3974 11.4072 11.5233C11.4072 9.58445 13.0336 8 14.9911 8C17.0152 8 18.5744 9.58378 18.5744 11.5233C18.5729 11.979 18.4792 12.43 18.2989 12.8504C18.1185 13.2708 17.855 13.6525 17.5233 13.9736C17.1915 14.2948 16.7982 14.5491 16.3656 14.7221C15.9331 14.8951 15.4698 14.9834 15.0022 14.9819L14.9904 14.9812ZM14.9904 10.0368C14.162 10.0368 13.5316 10.7152 13.5316 11.524C13.5316 12.3314 14.162 12.9458 14.9911 12.9458C15.8535 12.9458 16.4506 12.3314 16.4506 11.524C16.4513 10.7146 15.8535 10.0368 14.9904 10.0368ZM16.4174 17.3567L18.4421 19.2638C18.8404 19.6831 18.8404 20.2974 18.4421 20.6856C18.0112 21.1048 17.347 21.1048 17.0152 20.6856L14.9911 18.746L13.0336 20.6856C12.8348 20.8793 12.5688 20.9759 12.2696 20.9759C12.0375 20.9759 11.7722 20.8787 11.5395 20.6856C11.1412 20.2974 11.1412 19.6831 11.5395 19.2631L13.5967 17.356C12.8538 17.1415 12.1411 16.8379 11.475 16.452C10.977 16.1935 10.878 15.5474 11.1433 15.062C11.475 14.5773 12.0721 14.4483 12.6034 14.7717C13.3229 15.1996 14.1572 15.426 15 15.426C15.8428 15.426 16.6615 15.1996 17.3809 14.7717C17.9122 14.4483 18.5418 14.5773 18.8404 15.062C19.1396 15.5474 19.0059 16.1928 18.5412 16.452C17.9115 16.8402 17.1814 17.1312 16.4181 17.3573L16.4174 17.3567Z" fill="white"/>
</svg>
