<svg width="30" height="30" viewBox="0 0 30 30" fill="none" xmlns="http://www.w3.org/2000/svg">
<ellipse cx="15" cy="13.125" rx="10" ry="9.375" fill="white"/>
<path fill-rule="evenodd" clip-rule="evenodd" d="M20.083 5.54749C16.7353 4.8175 13.2637 4.8175 9.91598 5.54749L9.55527 5.62534C8.61335 5.83017 7.74819 6.28599 7.05611 6.94206C6.36402 7.59813 5.87217 8.42871 5.63532 9.34131C4.78823 12.6034 4.78823 16.02 5.63532 19.2821C5.86123 20.1524 6.31927 20.9489 6.96291 21.5906C7.60655 22.2323 8.41285 22.6964 9.2999 22.9358L9.79468 25.8172C9.81048 25.9087 9.85113 25.9944 9.9124 26.0653C9.97368 26.1363 10.0533 26.19 10.1431 26.2207C10.2328 26.2514 10.3294 26.2581 10.4227 26.2401C10.516 26.2221 10.6026 26.18 10.6736 26.1182L13.5795 23.5824C15.7609 23.7109 17.95 23.5407 20.083 23.0769L20.4447 22.9991C21.3866 22.7942 22.2518 22.3384 22.9439 21.6823C23.636 21.0263 24.1278 20.1957 24.3647 19.2831C25.2118 16.021 25.2118 12.6044 24.3647 9.34235C24.1277 8.42961 23.6357 7.59895 22.9435 6.94287C22.2512 6.28678 21.3858 5.83104 20.4437 5.62638L20.083 5.54749ZM10.814 9.25724C10.6163 9.22899 10.4146 9.26783 10.2426 9.36726H10.2278C9.82873 9.59562 9.46908 9.88314 9.16264 10.2215C8.90727 10.509 8.76894 10.7997 8.73276 11.0799C8.71148 11.246 8.72638 11.4142 8.77639 11.573L8.79554 11.5834C9.08284 12.4065 9.45738 13.1985 9.91492 13.9437C10.5051 14.9904 11.2311 15.9585 12.0749 16.8241L12.1005 16.8594L12.1409 16.8885L12.1654 16.9165L12.1952 16.9414C13.0858 17.767 14.0805 18.4785 15.1554 19.0589C16.3843 19.7118 17.1302 20.0201 17.5782 20.1488V20.155C17.7091 20.1944 17.8282 20.2121 17.9485 20.2121C18.3302 20.1854 18.6915 20.034 18.9742 19.7824C19.32 19.4834 19.6126 19.1316 19.8403 18.7402V18.733C20.0542 18.3385 19.9819 17.9669 19.6733 17.7147C19.054 17.1858 18.3837 16.7165 17.6718 16.3134C17.1951 16.0612 16.711 16.2138 16.5152 16.4691L16.097 16.984C15.8821 17.2393 15.4927 17.204 15.4927 17.204L15.482 17.2102C12.5761 16.4868 11.8004 13.6168 11.8004 13.6168C11.8004 13.6168 11.7642 13.2265 12.0334 13.0272L12.5569 12.6161C12.8081 12.4169 12.9826 11.9456 12.7134 11.4806C12.3011 10.7866 11.8211 10.1331 11.2801 9.52919C11.1617 9.38738 10.996 9.29073 10.8119 9.2562M15.7236 8.00958C15.5825 8.00958 15.4471 8.06426 15.3474 8.16159C15.2476 8.25892 15.1915 8.39093 15.1915 8.52857C15.1915 8.66622 15.2476 8.79823 15.3474 8.89556C15.4471 8.99289 15.5825 9.04757 15.7236 9.04757C17.0696 9.04757 18.1868 9.47625 19.071 10.2983C19.5254 10.7478 19.8797 11.2803 20.1117 11.8636C20.3447 12.448 20.4511 13.0718 20.4234 13.6967C20.4205 13.7648 20.4314 13.8329 20.4554 13.897C20.4794 13.961 20.5161 14.0198 20.5635 14.07C20.6591 14.1715 20.792 14.2317 20.9331 14.2375C21.0742 14.2433 21.2119 14.1941 21.3159 14.1009C21.4198 14.0076 21.4816 13.8779 21.4875 13.7403C21.5192 12.9717 21.3885 12.205 21.1034 11.4879C20.8169 10.7671 20.3808 10.1119 19.8223 9.56344L19.8116 9.55306C18.7146 8.53065 17.326 8.00958 15.7236 8.00958ZM15.6874 9.71603C15.5463 9.71603 15.411 9.7707 15.3112 9.86803C15.2114 9.96536 15.1554 10.0974 15.1554 10.235C15.1554 10.3727 15.2114 10.5047 15.3112 10.602C15.411 10.6993 15.5463 10.754 15.6874 10.754H15.7055C16.6759 10.8215 17.3824 11.137 17.8772 11.655C18.3847 12.1885 18.6476 12.8518 18.6273 13.6718C18.6241 13.8094 18.677 13.9427 18.7745 14.0422C18.872 14.1418 19.006 14.1995 19.1471 14.2027C19.2882 14.2059 19.4248 14.1542 19.5269 14.0591C19.629 13.964 19.6881 13.8333 19.6914 13.6956C19.7169 12.6193 19.3615 11.6903 18.6571 10.9491V10.9471C17.9368 10.1935 16.9483 9.79491 15.7587 9.71706L15.7406 9.71499L15.6874 9.71603ZM15.6672 11.4546C15.596 11.4485 15.5242 11.4564 15.4562 11.478C15.3882 11.4995 15.3254 11.5341 15.2714 11.5799C15.2175 11.6256 15.1735 11.6815 15.1422 11.7441C15.1109 11.8068 15.0928 11.875 15.0891 11.9446C15.0854 12.0143 15.0961 12.0839 15.1206 12.1494C15.145 12.2149 15.1828 12.2749 15.2316 12.3259C15.2804 12.3768 15.3392 12.4177 15.4045 12.446C15.4699 12.4743 15.5404 12.4894 15.6118 12.4905C16.0566 12.5134 16.3407 12.6442 16.5195 12.8196C16.6993 12.996 16.8334 13.2794 16.8578 13.7226C16.8592 13.7923 16.8748 13.861 16.904 13.9246C16.9331 13.9882 16.975 14.0454 17.0273 14.0929C17.0795 14.1403 17.1411 14.177 17.2082 14.2008C17.2753 14.2246 17.3467 14.2349 17.418 14.2312C17.4893 14.2275 17.5591 14.2099 17.6233 14.1793C17.6874 14.1487 17.7446 14.1059 17.7914 14.0533C17.8383 14.0007 17.8738 13.9394 17.8958 13.8732C17.9178 13.8069 17.926 13.737 17.9197 13.6676C17.8857 13.0448 17.6857 12.4947 17.276 12.0899C16.8642 11.6851 16.3035 11.4879 15.6672 11.4546Z" fill="#737373"/>
</svg>
