<svg width="30" height="30" viewBox="0 0 30 30" fill="none" xmlns="http://www.w3.org/2000/svg">
<path fill-rule="evenodd" clip-rule="evenodd" d="M6.52883 20.3173L6.76699 20.6953L5.7563 24.3844L9.54137 23.392L9.90668 23.6086C11.4417 24.5195 13.2019 25.0014 14.9967 25.0024H15.0006C20.5126 25.0024 24.9987 20.5172 25.0012 15.005C25.0018 12.3334 23.9628 9.82153 22.0746 7.93192C20.1863 6.0425 17.6758 5.00113 15.0044 5C9.48813 5 5.00208 9.48463 5 14.9969C4.99925 16.8858 5.52767 18.7254 6.52883 20.3173Z" fill="#737373"/>
<path d="M11.928 10.5226C11.6975 10.0257 11.4551 10.0157 11.236 10.0069C11.0565 9.99945 10.8514 10 10.6465 10C10.4414 10 10.1082 10.0749 9.82651 10.3733C9.54454 10.6721 8.75 11.394 8.75 12.8623C8.75 14.3306 9.8521 15.7498 10.0057 15.9491C10.1596 16.148 12.1333 19.2576 15.2593 20.4539C17.8573 21.4481 18.386 21.2503 18.9499 21.2005C19.5138 21.1508 20.7695 20.4787 21.0257 19.7818C21.2821 19.085 21.2821 18.4877 21.2052 18.3629C21.1284 18.2385 20.9233 18.1639 20.6157 18.0147C20.3081 17.8655 18.796 17.1434 18.5142 17.0438C18.2322 16.9443 18.0272 16.8946 17.8221 17.1934C17.617 17.4918 17.028 18.1639 16.8485 18.3629C16.6692 18.5624 16.4897 18.5872 16.1822 18.438C15.8745 18.2882 14.884 17.9734 13.7089 16.9568C12.7946 16.1657 12.1774 15.1888 11.998 14.89C11.8185 14.5916 11.9787 14.4299 12.133 14.2812C12.2711 14.1474 12.4406 13.9327 12.5945 13.7585C12.7479 13.5842 12.7991 13.4598 12.9016 13.2608C13.0043 13.0615 12.9529 12.8873 12.8761 12.738C12.7991 12.5887 12.2014 11.1127 11.928 10.5226Z" fill="white"/>
</svg>
